<?xml version="1.0" encoding="UTF-8" standalone="no"?>
<svg width="16px" height="29px" viewBox="0 0 16 29" version="1.1" xmlns="http://www.w3.org/2000/svg" xmlns:xlink="http://www.w3.org/1999/xlink">
    <!-- Generator: Sketch 43.1 (39012) - http://www.bohemiancoding.com/sketch -->
    <title>rocket icon</title>
    <desc>Created with Sketch.</desc>
    <defs></defs>
    <g id="ooto-Productivity-Dashboards" stroke="none" stroke-width="1" fill="none" fill-rule="evenodd">
        <g id="Funcionarios" transform="translate(-28.000000, -260.000000)" stroke="#FFFFFF" stroke-width="0.3" fill="#9B9B9B">
            <path d="M45.8422866,270.116164 C45.7814289,270.354378 45.7101384,270.589115 45.6318927,270.820375 C45.62146,270.856889 45.6092884,270.892535 45.5953781,270.926441 C45.1737209,272.120122 44.506894,273.23208 43.6566245,274.162334 L43.6566245,274.246665 L43.3540747,274.473577 L43.3540747,274.473577 L42.1473527,275.526416 C42.0751929,277.626008 41.211013,279.654309 39.7443416,281.141846 C39.2374837,281.655659 38.6688985,282.10079 38.0542354,282.462459 C37.8681846,282.571134 37.6621377,282.626775 37.454352,282.626775 C37.2952525,282.626775 37.1405,282.594607 36.9927027,282.532011 C36.6449442,282.382475 36.3849947,282.075578 36.2954469,281.709562 L35.9250841,280.231589 L35.5155985,280.383733 C34.6375084,280.710626 33.6055351,280.476758 32.9508797,279.81167 L30.6939272,277.521681 C30.0236227,276.840943 29.8027961,275.819403 30.1305585,274.917839 L30.280964,274.504876 L28.8212478,274.127558 C28.4587096,274.031924 28.1578985,273.768497 28.0144481,273.422477 C27.8701283,273.072111 27.8962102,272.66958 28.082261,272.343557 C28.4387134,271.71933 28.8760197,271.142051 29.3837471,270.627369 C30.8469409,269.141571 32.8500298,268.262611 34.9165845,268.188712 L36.0250647,266.886357 C36.9944415,265.906547 38.1863836,265.144087 39.47309,264.680699 C39.4765676,264.67809 39.5104741,264.66505 39.5522051,264.652878 C39.7808563,264.572024 40.0129851,264.500734 40.2485914,264.439007 C41.7874227,264.035607 43.4375367,264.041692 44.976368,264.459003 C45.3884618,264.571155 45.7118772,264.899787 45.8222905,265.317097 C46.2352537,266.884618 46.2422088,268.544295 45.8422866,270.116164 L45.8422866,270.116164 Z M37.4473969,280.655854 C37.7864614,280.420247 38.3446138,280.318528 38.6393391,280.020325 C39.4635267,279.183966 40.0468915,278.135474 40.3494414,277.005259 L37.4360947,279.516945 C37.4160986,279.535202 37.3900167,279.542157 37.3682818,279.556937 L37.4473969,280.655854 L37.4473969,280.655854 Z M30.4887497,271.74889 C30.1948938,272.047093 29.9297279,272.371377 29.6967297,272.716528 L31.3616235,272.831288 L33.1004159,270.223099 C31.9919357,270.531735 31.3077209,270.917747 30.4887497,271.74889 L30.4887497,271.74889 Z M44.3651824,265.938715 C43.1454196,265.64399 41.8508886,265.657031 40.6389503,265.97523 C40.4372504,266.027393 40.2398975,266.089121 40.0451527,266.157803 L39.992989,266.174321 C38.9410196,266.555117 37.9629488,267.177605 37.1622349,267.97571 L37.1170263,268.024396 L35.8781367,269.48846 L32.0023685,274.349254 L31.5972298,275.467297 C31.4798614,275.789843 31.5589764,276.155859 31.7989298,276.400159 L34.0567517,278.690149 C34.2906193,278.928364 34.6635902,279.011826 34.9765729,278.895327 L36.357174,278.378905 C36.3789089,278.354562 36.3997745,278.330219 36.4241176,278.308484 L40.4372504,274.847418 C40.5146267,274.781344 40.6015663,274.733527 40.6919835,274.703098 L42.3577466,273.24599 C43.1428114,272.436582 43.7557357,271.443732 44.1304455,270.371766 L44.1478334,270.32308 C44.2156463,270.124858 44.276504,269.923158 44.3286678,269.719719 C44.6433892,268.481699 44.6555608,267.179343 44.3651824,265.938715 L44.3651824,265.938715 Z M40.0268954,272.882582 C38.5897835,272.882582 37.4204456,271.695857 37.4204456,270.23701 C37.4204456,268.778163 38.5897835,267.591437 40.0268954,267.591437 C41.4648767,267.591437 42.6342146,268.778163 42.6342146,270.23701 C42.6342146,271.695857 41.4648767,272.882582 40.0268954,272.882582 L40.0268954,272.882582 Z M40.0268954,269.178085 C39.4522245,269.178085 38.98362,269.652776 38.98362,270.23701 C38.98362,270.821244 39.4522245,271.295934 40.0268954,271.295934 C40.6024357,271.295934 41.0710402,270.821244 41.0710402,270.23701 C41.0710402,269.652776 40.6024357,269.178085 40.0268954,269.178085 L40.0268954,269.178085 Z M28.999474,277.857267 C29.3046321,278.166773 29.3046321,278.669284 28.999474,278.978789 L27.4710755,280.528922 C27.3189311,280.684544 27.11897,280.76192 26.9190089,280.76192 C26.7190478,280.76192 26.5190866,280.684544 26.3660729,280.528922 C26.0609148,280.219417 26.0609148,279.717775 26.3660729,279.407401 L27.8944714,277.857267 C28.1996295,277.546893 28.6943159,277.546893 28.999474,277.857267 L28.999474,277.857267 Z M29.7593263,279.407401 C30.0644843,279.097896 30.5591708,279.097896 30.8643288,279.407401 C31.1694869,279.717775 31.1694869,280.219417 30.8643288,280.528922 L27.5406272,283.90131 C27.3884828,284.056062 27.1885217,284.133439 26.9885606,284.133439 C26.7877301,284.133439 26.5877689,284.056062 26.4356246,283.90131 C26.1304665,283.590935 26.1304665,283.089294 26.4356246,282.779789 L29.7593263,279.407401 L29.7593263,279.407401 Z M31.5441967,281.320073 C31.8493547,281.009698 32.3449106,281.010568 32.6491992,281.320073 C32.9543573,281.629578 32.9543573,282.132089 32.6491992,282.441594 L31.3990075,283.709173 C31.2468632,283.863926 31.046902,283.941302 30.8469409,283.941302 C30.6469798,283.941302 30.4470187,283.863926 30.2940049,283.709173 C29.9888469,283.399668 29.9888469,282.897157 30.2940049,282.587652 L31.5441967,281.320073 L31.5441967,281.320073 Z" id="rocket-icon" transform="translate(36.137204, 274.137300) rotate(-46.000000) translate(-36.137204, -274.137300) "></path>
        </g>
    </g>
</svg>